<?xml version="1.0" standalone="no"?>
<!DOCTYPE svg PUBLIC "-//W3C//DTD SVG 20010904//EN"
 "http://www.w3.org/TR/2001/REC-SVG-20010904/DTD/svg10.dtd">
<svg version="1.0" xmlns="http://www.w3.org/2000/svg"
 width="2400.000000pt" height="2400.000000pt" viewBox="0 0 2400.000000 2400.000000"
 preserveAspectRatio="xMidYMid meet">

<g transform="translate(0.000000,2400.000000) scale(0.100000,-0.100000)"
fill="#000000" stroke="none">
<path d="M12405 19169 c-82 -4 -186 -12 -230 -18 -44 -6 -123 -16 -175 -22
-96 -10 -207 -34 -225 -49 -5 -4 -43 -11 -83 -14 -78 -8 -112 -17 -181 -48
-23 -10 -68 -24 -100 -29 -31 -6 -75 -19 -98 -30 -24 -10 -50 -19 -58 -19 -8
0 -15 -4 -15 -10 0 -5 -11 -10 -24 -10 -14 0 -27 -4 -30 -9 -3 -5 -27 -14 -52
-20 -26 -7 -65 -21 -88 -32 -22 -10 -45 -19 -50 -19 -6 0 -29 -9 -51 -19 -22
-11 -47 -22 -55 -26 -8 -3 -28 -14 -45 -24 -16 -10 -82 -45 -145 -77 -63 -32
-134 -71 -157 -86 -23 -16 -46 -28 -51 -28 -5 0 -17 -9 -27 -20 -10 -11 -24
-20 -32 -20 -7 0 -13 -4 -13 -10 0 -5 -6 -10 -12 -10 -7 -1 -29 -14 -48 -30
-19 -17 -39 -30 -45 -30 -6 0 -33 -18 -60 -40 -28 -22 -72 -57 -99 -78 -62
-47 -216 -200 -216 -215 0 -6 -21 -31 -47 -56 -27 -25 -55 -57 -63 -70 -8 -14
-27 -36 -41 -50 -28 -28 -89 -125 -89 -141 0 -6 -11 -20 -24 -31 -13 -12 -27
-36 -31 -55 -3 -19 -15 -38 -26 -45 -15 -8 -19 -17 -15 -33 3 -14 -4 -36 -21
-61 -17 -24 -26 -51 -26 -76 0 -22 -6 -44 -13 -50 -8 -6 -14 -19 -14 -28 0
-14 -16 -16 -117 -17 -65 -1 -156 -5 -203 -8 -47 -4 -107 -8 -135 -10 -63 -3
-135 -23 -157 -43 -13 -11 -31 -14 -68 -11 -40 4 -55 1 -72 -14 -13 -11 -29
-16 -40 -12 -11 3 -24 1 -31 -4 -14 -11 -56 -21 -107 -26 -52 -5 -91 -24 -97
-45 -4 -15 -14 -18 -55 -17 -42 1 -53 -3 -65 -21 -9 -13 -26 -23 -39 -23 -12
0 -26 -4 -29 -10 -3 -5 -14 -10 -24 -10 -9 0 -39 -20 -65 -45 -32 -29 -58 -45
-75 -45 -15 0 -36 -11 -50 -25 -13 -14 -33 -25 -45 -25 -12 0 -37 -18 -59 -40
-20 -22 -46 -40 -57 -40 -11 0 -20 -4 -20 -9 0 -17 -64 -70 -92 -76 -14 -4
-29 -13 -32 -21 -3 -8 -16 -18 -30 -24 -25 -9 -56 -60 -56 -93 0 -15 -5 -18
-24 -13 -27 7 -49 -13 -44 -41 2 -14 -3 -18 -27 -18 -25 0 -30 -4 -30 -25 0
-20 -7 -26 -38 -33 -39 -10 -59 -33 -38 -46 8 -5 7 -16 -5 -39 -12 -26 -21
-32 -42 -30 -24 3 -27 0 -25 -25 1 -19 -5 -32 -23 -43 -18 -12 -23 -22 -18
-36 5 -16 -5 -31 -41 -63 -36 -34 -45 -48 -40 -64 5 -15 -1 -23 -24 -36 -25
-13 -31 -22 -31 -50 0 -24 -7 -39 -25 -53 -14 -11 -25 -29 -25 -40 0 -12 -5
-24 -11 -27 -6 -4 -8 -13 -5 -20 3 -8 -4 -24 -14 -38 -10 -13 -22 -36 -26 -51
-4 -16 -17 -31 -30 -36 -24 -10 -31 -24 -16 -34 5 -3 -4 -31 -19 -63 -16 -32
-29 -75 -29 -95 0 -22 -5 -38 -11 -38 -22 0 -37 -33 -28 -58 6 -14 6 -29 1
-36 -5 -6 -9 -18 -10 -26 0 -19 -20 -75 -38 -113 -17 -35 -18 -64 -3 -69 9 -3
9 -9 1 -25 -7 -12 -9 -36 -5 -53 4 -25 2 -35 -11 -42 -9 -5 -14 -13 -11 -18 3
-5 -3 -14 -14 -19 -17 -9 -18 -15 -8 -40 8 -23 8 -36 -3 -58 -7 -15 -14 -41
-16 -58 -1 -16 -5 -60 -7 -97 -3 -38 -8 -72 -12 -78 -3 -5 -1 -19 6 -31 8 -16
8 -27 -1 -45 -10 -18 -10 -33 -1 -70 8 -33 9 -50 2 -57 -14 -14 -14 -88 -1
-158 9 -45 11 -112 8 -214 -2 -54 14 -264 21 -295 36 -139 47 -309 25 -360
-16 -37 -18 -40 -48 -86 -11 -16 -39 -58 -63 -94 -24 -36 -59 -85 -78 -110
-19 -25 -35 -50 -35 -57 0 -6 -4 -13 -8 -15 -12 -5 -52 -65 -52 -78 0 -6 -13
-25 -30 -43 -16 -18 -30 -37 -30 -43 0 -6 -6 -17 -14 -23 -33 -28 -108 -196
-122 -275 -4 -22 -13 -51 -20 -65 -8 -14 -14 -43 -14 -63 0 -31 -5 -40 -28
-52 -16 -8 -34 -22 -41 -30 -16 -19 -52 -21 -70 -3 -10 10 -17 6 -37 -16 -20
-23 -30 -28 -51 -23 -16 5 -31 2 -42 -7 -9 -8 -38 -22 -64 -32 -26 -10 -51
-24 -55 -31 -4 -6 -18 -14 -31 -16 -16 -2 -31 -16 -44 -40 -11 -24 -26 -38
-38 -38 -24 0 -89 -60 -89 -82 0 -11 -8 -18 -18 -18 -27 0 -54 -34 -61 -78 -5
-29 -11 -38 -29 -40 -16 -3 -28 -15 -39 -40 -8 -20 -24 -47 -35 -59 -12 -13
-18 -29 -14 -40 4 -13 -2 -27 -19 -43 -15 -14 -23 -30 -20 -41 3 -10 -1 -19
-10 -23 -8 -3 -15 -17 -15 -32 0 -14 -8 -38 -19 -52 -10 -15 -21 -44 -24 -65
-3 -21 -13 -52 -21 -69 -9 -17 -16 -50 -16 -74 0 -24 -4 -46 -10 -49 -5 -3
-10 -21 -10 -40 0 -19 -5 -45 -11 -58 -8 -18 -8 -30 1 -47 9 -16 9 -25 1 -33
-14 -14 -15 -197 -1 -197 6 0 10 -9 10 -19 0 -11 5 -23 10 -26 18 -11 11 -64
-10 -75 -15 -8 -18 -15 -12 -28 5 -9 10 -40 10 -69 0 -29 10 -83 21 -120 11
-37 21 -81 23 -98 2 -21 11 -34 31 -43 31 -15 33 -24 12 -42 -13 -11 -13 -15
0 -41 8 -15 15 -33 15 -39 0 -6 14 -38 30 -72 17 -33 30 -64 30 -69 0 -9 50
-114 73 -154 65 -111 121 -196 153 -230 16 -16 36 -40 45 -53 53 -77 303 -329
343 -347 12 -5 43 -28 68 -50 25 -22 75 -58 112 -79 37 -21 69 -43 72 -47 2
-4 36 -24 76 -43 65 -33 78 -36 158 -36 92 0 112 9 108 46 -1 11 2 45 6 77 7
45 5 61 -6 75 -8 9 -18 25 -21 35 -4 9 -16 17 -27 17 -26 0 -118 47 -146 74
-39 38 -88 76 -99 76 -5 0 -38 27 -73 60 -34 33 -67 60 -72 60 -6 0 -10 6 -10
13 0 25 -77 97 -105 97 -16 0 -28 7 -31 18 -13 42 -42 88 -81 129 -24 24 -43
47 -43 52 0 4 -16 28 -36 54 -20 25 -33 50 -30 55 3 5 -3 17 -14 27 -11 10
-20 22 -20 27 0 6 -9 21 -20 35 -11 14 -20 33 -20 43 0 9 -12 35 -27 56 -15
21 -28 50 -29 64 -3 47 -28 112 -46 124 -14 8 -18 24 -18 73 0 43 -6 72 -19
95 -14 24 -20 52 -20 103 0 39 -5 104 -10 145 -13 92 -14 217 -3 224 5 3 14
31 21 63 7 32 16 70 20 85 5 16 5 30 -2 37 -7 7 -7 14 1 24 7 8 9 17 6 20 -4
3 3 18 15 32 11 15 23 43 27 64 4 20 23 70 44 111 20 41 43 90 50 108 7 19 24
38 37 43 15 5 23 17 23 32 0 25 59 87 83 87 7 0 22 9 32 20 10 11 26 20 35 20
9 0 29 14 45 30 16 17 39 30 51 30 13 0 26 5 29 10 12 19 26 10 20 -11 -4 -12
-1 -32 5 -45 10 -17 10 -27 2 -36 -17 -21 -11 -78 11 -116 l20 -33 -22 -39
c-26 -47 -27 -66 -1 -80 15 -8 18 -17 14 -40 -4 -16 -2 -42 4 -58 6 -19 6 -34
0 -47 -8 -13 -7 -20 6 -27 12 -7 16 -25 16 -78 0 -46 4 -72 13 -77 15 -9 37
-78 37 -114 0 -13 12 -46 26 -73 14 -26 24 -57 21 -67 -3 -11 1 -22 7 -27 17
-10 36 -46 36 -70 0 -10 9 -27 20 -37 11 -10 20 -29 20 -42 0 -14 16 -40 40
-64 22 -22 40 -46 40 -54 0 -7 7 -18 16 -26 20 -16 84 -113 84 -126 0 -6 14
-25 30 -43 17 -18 30 -38 30 -45 0 -7 7 -15 15 -19 8 -3 19 -16 24 -29 5 -13
25 -31 44 -40 19 -9 40 -24 47 -32 8 -9 26 -23 42 -31 35 -18 68 -69 68 -106
0 -15 4 -29 9 -32 9 -6 28 -110 29 -163 1 -18 8 -43 17 -56 13 -20 13 -30 4
-49 -8 -20 -8 -32 4 -54 8 -16 12 -35 10 -42 -3 -7 3 -24 12 -38 9 -14 13 -33
10 -43 -7 -24 14 -159 30 -191 7 -14 10 -31 8 -38 -3 -7 2 -24 11 -37 9 -13
16 -44 16 -68 0 -27 6 -49 15 -57 9 -7 12 -22 9 -40 -4 -17 4 -57 20 -103 14
-42 29 -98 32 -124 3 -26 19 -87 35 -134 16 -48 29 -93 29 -101 0 -8 11 -31
24 -50 16 -24 22 -44 19 -62 -3 -15 1 -36 11 -51 9 -13 16 -35 16 -49 0 -14 5
-28 10 -31 6 -3 10 -16 10 -28 0 -13 7 -32 15 -44 9 -12 29 -66 46 -120 16
-54 43 -125 59 -158 16 -33 32 -81 35 -107 3 -27 12 -49 20 -52 8 -3 15 -13
15 -22 0 -9 9 -28 19 -43 11 -15 23 -40 27 -57 4 -16 10 -33 14 -39 4 -5 17
-37 29 -70 12 -33 33 -71 46 -85 13 -14 31 -52 39 -84 9 -33 22 -66 30 -75 8
-9 20 -27 26 -41 6 -14 23 -46 38 -72 77 -133 89 -156 102 -188 7 -19 21 -43
32 -52 10 -9 38 -54 61 -100 46 -90 84 -153 128 -208 15 -19 30 -45 33 -57 4
-11 13 -24 21 -27 8 -3 15 -14 15 -24 0 -10 14 -31 30 -47 17 -16 30 -34 30
-40 0 -7 9 -20 20 -30 11 -10 41 -49 66 -87 24 -37 49 -68 54 -68 5 0 17 -17
27 -37 10 -21 41 -62 70 -91 29 -29 53 -57 53 -62 0 -6 5 -10 10 -10 6 0 10
-6 10 -13 0 -8 9 -22 21 -33 12 -10 27 -31 35 -46 8 -16 21 -28 28 -28 8 0 24
-15 35 -34 29 -46 85 -106 99 -106 6 0 18 -12 27 -28 19 -36 54 -73 88 -95 15
-9 27 -24 27 -32 0 -8 4 -15 9 -15 6 0 39 -29 75 -65 36 -36 76 -69 90 -75 15
-5 32 -24 40 -43 8 -19 27 -41 42 -49 16 -8 38 -19 49 -25 11 -7 27 -14 37
-17 9 -2 19 -18 23 -35 4 -17 12 -31 19 -31 7 0 29 -15 48 -32 57 -52 66 -58
87 -58 11 0 27 -14 40 -35 12 -20 28 -35 39 -35 10 0 29 -11 42 -25 13 -14 29
-25 35 -25 6 0 22 -12 36 -26 13 -14 42 -34 64 -44 22 -10 51 -29 65 -42 14
-13 40 -31 58 -39 17 -7 32 -19 32 -26 0 -15 32 -33 58 -33 11 0 22 -7 26 -15
3 -8 14 -15 24 -15 10 0 34 -12 53 -26 72 -54 144 -94 170 -94 14 0 43 -13 64
-30 21 -16 44 -30 51 -30 8 0 22 -9 31 -20 10 -11 23 -20 30 -20 7 0 21 -4 31
-9 9 -4 31 -15 47 -23 34 -17 85 -32 101 -29 6 0 17 -6 24 -14 7 -8 21 -15 31
-15 10 0 21 -5 25 -11 3 -6 15 -9 25 -6 10 3 23 -1 29 -8 6 -8 26 -17 43 -21
18 -3 37 -10 42 -14 6 -4 23 -10 40 -14 16 -4 33 -12 36 -18 4 -6 37 -12 74
-15 47 -3 76 -10 93 -24 14 -10 37 -19 52 -19 15 0 33 -6 39 -14 6 -7 30 -16
54 -19 23 -4 71 -13 107 -21 209 -46 250 -52 410 -61 52 -3 104 -10 115 -15
11 -6 75 -8 145 -6 69 3 132 5 140 5 8 1 54 -2 103 -5 63 -4 87 -3 87 6 0 6 5
8 12 3 17 -10 91 -12 103 -2 6 4 53 9 105 10 62 2 103 8 118 17 16 10 36 13
68 8 41 -5 47 -4 51 15 6 20 21 21 85 3 9 -3 21 3 26 12 7 12 26 17 81 19 39
1 77 7 83 13 7 7 29 12 49 12 21 0 40 4 43 9 3 5 23 11 43 13 45 6 132 27 153
38 8 5 14 14 12 20 -2 8 5 11 18 7 11 -3 33 -1 48 4 15 5 47 15 72 23 37 11
46 19 48 40 4 31 13 33 30 6 18 -29 30 -25 71 19 33 35 41 39 83 39 33 -1 59
7 91 25 25 15 53 27 61 27 9 0 34 8 56 18 34 14 40 21 35 39 -3 13 -1 23 5 23
5 0 10 -7 10 -15 0 -18 29 -19 51 -2 9 7 19 29 23 49 6 33 10 37 33 36 14 -2
28 -8 30 -15 8 -20 37 -15 51 7 7 11 18 20 26 20 7 0 19 7 26 15 6 8 15 14 18
13 16 -4 58 16 70 33 7 11 20 19 28 19 8 0 14 5 14 10 0 6 9 10 20 10 14 0 18
5 13 17 -5 12 -2 15 10 10 21 -8 69 16 106 54 16 16 35 29 41 29 13 0 64 40
110 85 14 14 33 25 42 25 9 0 18 7 22 15 3 8 14 15 24 15 23 0 82 60 82 83 0
9 -4 17 -10 17 -5 0 -10 5 -10 10 0 19 32 10 37 -10 7 -27 26 -20 33 11 4 15
14 25 28 27 12 2 22 8 22 13 0 17 74 84 90 81 8 -1 36 18 60 43 25 24 48 45
52 45 13 0 56 49 60 66 2 9 20 26 40 36 21 11 48 32 60 48 13 15 34 42 48 59
14 17 29 31 34 31 5 0 27 19 48 43 35 37 52 63 78 117 4 8 16 17 26 18 10 2
32 16 47 30 21 20 27 34 24 55 -2 15 0 30 5 33 4 3 8 -2 8 -10 0 -24 15 -19
43 12 13 15 43 48 66 73 22 25 41 56 41 68 0 11 12 31 26 44 47 39 74 71 74
87 0 8 14 27 31 41 31 25 31 26 15 51 -17 27 -13 38 15 38 10 0 24 8 31 18 7
10 21 21 30 25 11 4 15 12 12 22 -4 8 -1 15 6 15 28 0 90 84 90 121 0 11 5 19
10 19 6 0 10 11 10 24 0 17 7 26 24 30 23 6 74 81 132 196 14 27 29 50 35 50
5 0 9 7 9 16 0 9 9 27 20 42 11 14 26 45 32 70 6 24 17 46 25 49 25 10 53 79
47 112 -6 27 -4 31 14 31 23 0 53 36 46 54 -8 20 14 66 31 66 9 0 15 9 15 25
0 14 4 25 10 25 5 0 7 13 4 29 -5 23 -2 32 15 41 12 6 19 15 16 21 -4 5 -11 7
-16 4 -5 -4 -9 1 -9 9 0 9 5 16 10 16 6 0 27 15 45 34 29 27 35 40 35 75 0 23
5 41 11 41 6 0 9 6 6 14 -3 7 1 24 10 36 11 15 13 33 9 62 -6 37 -5 40 24 51
16 6 30 17 30 23 0 6 9 23 21 38 19 24 19 27 5 42 -20 20 -21 15 10 74 14 27
34 52 45 55 10 4 19 9 20 13 4 54 11 84 29 117 22 43 26 80 10 90 -15 9 -2 25
21 25 10 0 19 1 19 3 0 1 13 40 29 87 19 55 26 90 21 100 -5 9 -5 22 1 31 5 7
6 32 3 55 -5 36 -3 41 21 52 14 7 34 12 44 12 10 0 26 9 36 20 10 11 25 20 34
20 19 0 103 43 146 75 17 12 48 31 70 41 22 10 66 37 98 61 31 24 61 43 66 43
4 0 23 13 42 29 79 69 159 131 167 131 4 0 23 16 42 35 19 19 39 35 45 35 6 0
25 15 42 33 44 47 140 127 152 127 6 0 11 4 11 8 0 4 48 58 108 119 97 101
219 255 232 293 3 9 17 32 33 51 15 20 27 41 27 47 0 6 23 47 50 92 28 45 50
86 50 90 0 5 13 38 28 72 16 35 34 79 42 98 7 19 17 39 22 44 4 6 8 22 8 37 0
15 7 40 15 55 8 16 15 40 15 54 0 14 7 36 16 48 10 15 14 32 10 48 -4 14 -2
32 4 39 6 7 13 30 15 51 3 22 9 68 14 104 15 105 19 242 8 267 -7 16 -7 27 2
37 15 18 6 129 -15 190 -8 21 -14 66 -14 100 0 42 -5 69 -17 86 -9 13 -18 41
-19 61 -2 38 -43 154 -70 199 -8 14 -22 41 -31 60 -8 19 -19 43 -24 52 -7 13
-4 23 9 36 17 17 32 45 82 157 20 45 37 103 44 155 3 19 10 62 16 95 21 109
19 98 46 331 4 38 2 68 -4 81 -8 14 -8 23 0 31 15 15 13 425 -2 502 -11 54
-25 174 -34 295 -13 166 -67 568 -84 635 -5 19 -15 49 -22 65 -6 17 -13 55
-14 86 -2 30 -7 62 -12 70 -15 24 -34 83 -34 109 0 14 -9 40 -20 58 -11 18
-20 42 -20 55 0 25 -24 97 -47 142 -30 58 -33 65 -33 84 0 19 -61 159 -105
242 -14 26 -25 55 -25 64 0 17 -84 192 -101 210 -5 5 -9 15 -9 22 0 7 -12 32
-27 56 -45 69 -52 80 -68 115 -8 18 -30 49 -48 70 -17 20 -43 59 -57 85 -14
26 -38 62 -53 80 -16 18 -53 68 -83 112 -30 44 -98 126 -152 181 -112 117
-271 264 -285 264 -5 0 -25 14 -44 30 -18 17 -38 30 -43 30 -6 0 -29 18 -51
39 -23 22 -54 45 -68 52 -14 7 -35 20 -46 29 -11 9 -36 23 -55 31 -19 7 -50
24 -69 36 -19 13 -42 23 -53 23 -11 0 -34 11 -52 25 -18 14 -39 25 -47 25 -8
0 -33 9 -54 20 -22 11 -58 23 -80 27 -22 3 -56 14 -76 24 -43 21 -137 40 -145
28 -6 -11 -52 -1 -78 17 -17 12 -43 48 -72 101 -7 12 -15 40 -19 62 -4 23 -13
48 -21 55 -7 8 -26 34 -41 59 -15 25 -46 71 -69 103 -23 33 -44 69 -48 81 -4
12 -15 24 -24 27 -15 5 -29 25 -77 105 -24 41 -259 291 -273 291 -8 0 -40 25
-70 55 -29 31 -70 66 -91 79 -21 13 -53 41 -72 61 -19 20 -50 45 -70 55 -20
11 -39 26 -42 35 -4 8 -15 15 -25 15 -10 0 -27 9 -37 20 -10 11 -24 20 -30 20
-7 0 -20 11 -29 25 -9 14 -22 25 -30 25 -7 0 -21 9 -31 20 -11 13 -25 18 -37
14 -12 -3 -18 0 -18 10 0 9 -35 31 -87 56 -49 23 -98 52 -111 66 -13 13 -29
24 -38 24 -8 0 -32 12 -54 26 -21 14 -44 23 -50 19 -6 -4 -25 4 -43 17 -41 31
-88 52 -159 73 -31 9 -62 22 -68 30 -7 8 -23 15 -36 15 -12 0 -26 5 -29 10 -3
6 -15 10 -26 10 -10 0 -19 5 -19 10 0 6 -14 10 -30 10 -17 0 -49 9 -73 20 -23
10 -55 21 -72 22 -16 2 -61 16 -100 30 -85 32 -198 58 -223 51 -10 -2 -24 3
-31 11 -9 10 -22 14 -38 10 -13 -4 -34 -2 -46 3 -43 20 -100 35 -161 44 -33 5
-74 11 -91 13 -61 9 -373 46 -475 56 -140 14 -568 19 -755 9z m-2665 -2157
c15 -29 34 -58 42 -65 9 -6 19 -24 22 -40 4 -15 22 -45 41 -66 19 -21 35 -44
35 -50 0 -6 7 -14 15 -17 8 -4 23 -22 32 -42 9 -19 29 -42 45 -51 15 -9 28
-24 28 -33 0 -9 20 -34 45 -55 25 -20 45 -41 45 -45 0 -14 256 -278 270 -278
5 0 12 -9 15 -20 4 -11 22 -27 41 -35 19 -8 37 -21 41 -30 3 -9 17 -21 30 -26
14 -5 27 -18 30 -28 2 -10 19 -24 36 -32 18 -8 36 -24 41 -35 6 -12 25 -28 43
-35 18 -7 44 -24 57 -38 14 -14 55 -48 92 -76 38 -27 83 -65 101 -83 18 -18
45 -35 60 -36 14 -2 36 -14 47 -27 12 -13 52 -40 89 -59 37 -19 76 -42 85 -50
27 -25 110 -80 119 -80 5 0 27 -13 49 -28 45 -33 114 -62 148 -62 12 0 31 -10
42 -21 20 -22 62 -44 78 -40 5 1 18 -7 30 -18 11 -11 42 -25 68 -31 26 -7 53
-18 59 -26 6 -8 24 -14 39 -14 15 0 35 -9 45 -20 10 -11 26 -20 36 -20 25 0
69 -21 69 -33 0 -5 15 -7 35 -4 26 4 40 1 53 -12 24 -24 67 -41 90 -34 11 2
32 -3 46 -12 17 -12 35 -15 53 -10 36 8 113 47 113 56 0 3 9 9 20 12 11 3 20
13 20 24 0 10 7 27 15 37 11 14 12 23 4 32 -7 9 -7 20 2 36 15 28 22 215 9
223 -6 3 -10 20 -10 36 0 38 -20 120 -33 136 -5 7 -7 19 -4 26 2 7 -1 46 -9
87 -7 41 -13 95 -13 120 l0 45 18 -22 c11 -13 22 -23 25 -23 8 0 56 -47 56
-55 0 -12 148 -155 160 -155 5 0 10 -5 10 -12 0 -6 15 -26 33 -44 17 -18 41
-42 51 -53 11 -12 28 -21 38 -21 10 0 22 -10 27 -23 5 -13 21 -31 35 -40 14
-10 26 -24 26 -32 0 -7 19 -26 43 -42 23 -16 46 -38 52 -51 5 -12 15 -22 21
-22 5 0 23 -13 39 -30 16 -16 35 -30 42 -30 7 0 20 -11 29 -25 9 -14 34 -35
55 -47 22 -12 46 -32 55 -45 8 -14 23 -23 33 -21 10 2 31 -13 51 -36 19 -21
44 -42 57 -47 13 -5 23 -15 23 -24 0 -8 7 -15 15 -15 8 0 23 -8 33 -18 10 -10
46 -35 80 -56 33 -20 64 -46 67 -57 4 -11 13 -18 20 -15 7 2 21 -4 31 -15 10
-11 23 -18 30 -15 6 2 20 -3 30 -12 11 -9 31 -23 47 -31 15 -8 27 -20 27 -28
0 -7 11 -18 25 -23 14 -5 28 -16 31 -23 3 -9 20 -14 49 -13 36 1 47 -4 64 -26
20 -25 26 -27 73 -21 42 5 53 3 64 -12 8 -11 14 -15 14 -11 0 5 6 4 13 -2 7
-6 28 -7 55 -2 24 4 52 5 63 3 13 -4 19 0 19 10 0 9 22 38 49 65 l49 49 -6 71
c-3 47 -1 77 7 86 6 7 13 47 16 87 2 41 5 76 6 79 6 17 11 92 12 207 2 104 6
136 18 148 14 14 20 11 62 -30 26 -25 49 -56 53 -70 3 -14 15 -30 25 -36 11
-5 19 -16 19 -23 0 -7 11 -18 25 -24 13 -6 31 -27 39 -45 8 -19 19 -38 25 -41
6 -4 11 -16 11 -27 0 -11 7 -19 16 -19 9 0 18 -9 21 -20 3 -10 20 -28 39 -39
24 -15 34 -27 34 -45 0 -16 9 -32 25 -42 15 -10 27 -30 31 -51 4 -19 13 -37
21 -40 7 -3 23 -23 34 -44 11 -22 25 -39 32 -39 18 0 59 -58 66 -94 5 -23 14
-32 38 -38 41 -11 51 -27 28 -44 -10 -8 -17 -15 -14 -16 2 -2 13 -8 24 -14 11
-6 22 -20 24 -30 2 -10 19 -36 38 -57 18 -21 31 -42 28 -46 -3 -5 11 -18 31
-30 32 -19 63 -71 56 -95 -2 -5 14 -27 35 -48 29 -30 35 -41 24 -47 -16 -10
-6 -31 14 -31 20 0 55 -49 55 -79 1 -29 24 -66 43 -66 7 0 11 -9 10 -20 -1
-10 12 -36 28 -56 16 -21 27 -44 23 -52 -3 -8 2 -29 11 -46 8 -17 13 -31 9
-31 -3 0 5 -15 19 -33 14 -19 29 -50 32 -70 4 -20 13 -41 21 -48 8 -6 14 -28
14 -48 0 -20 6 -45 13 -56 15 -22 40 -95 55 -165 6 -25 14 -53 17 -62 11 -28
-28 -22 -66 9 -35 29 -155 93 -176 93 -7 0 -13 6 -13 13 0 9 -22 19 -57 27
-32 7 -80 23 -107 36 -28 13 -65 24 -85 24 -34 0 -85 13 -129 34 -13 5 -68 10
-123 11 -54 0 -99 3 -99 6 0 12 -49 28 -55 19 -7 -12 -81 -12 -150 -1 -27 5
-54 6 -60 3 -13 -8 -65 -3 -86 9 -10 5 -23 3 -35 -5 -14 -9 -40 -11 -94 -6
-41 4 -83 3 -92 -2 -9 -4 -28 -8 -42 -8 -14 0 -26 -4 -26 -10 0 -15 -37 -12
-43 4 -6 16 -93 11 -115 -7 -6 -5 -32 -10 -57 -11 -25 -1 -48 -5 -51 -9 -4 -4
-19 -7 -34 -7 -14 0 -30 -4 -35 -9 -9 -8 -56 -16 -155 -24 -54 -5 -100 -18
-100 -29 0 -6 -11 -8 -25 -6 -18 4 -26 0 -30 -13 -5 -16 -17 -19 -75 -19 -59
0 -71 -3 -80 -20 -7 -13 -21 -20 -41 -20 -23 0 -29 -4 -27 -17 2 -10 -4 -19
-14 -21 -11 -2 -18 3 -18 12 0 20 -7 20 -27 0 -9 -8 -22 -13 -30 -10 -8 4 -29
-4 -46 -16 -49 -36 -95 -58 -117 -58 -27 0 -89 -34 -106 -58 -8 -11 -30 -21
-54 -25 -34 -4 -221 -86 -270 -118 -8 -5 -23 -12 -32 -15 -10 -4 -18 -13 -18
-20 0 -8 -8 -14 -19 -14 -23 0 -35 -14 -52 -65 -7 -22 -21 -51 -31 -64 -15
-20 -16 -26 -4 -50 17 -32 54 -66 63 -58 3 4 12 2 19 -4 8 -6 22 -7 36 -3 13
4 27 7 31 6 4 -1 17 4 29 12 11 8 26 12 34 9 8 -3 28 7 45 21 17 14 41 26 54
26 12 0 28 6 34 14 7 8 26 18 42 21 32 7 115 51 125 66 3 5 10 7 15 4 5 -4 12
1 15 9 4 9 18 16 33 16 17 0 38 11 56 30 18 19 39 30 56 30 14 0 32 7 39 15 7
8 17 15 22 15 11 0 69 24 110 46 15 8 31 15 35 15 22 0 61 14 83 29 14 10 46
20 72 24 25 4 52 13 58 21 7 8 22 14 34 14 34 0 104 17 120 30 8 7 19 10 24 8
7 -5 57 6 202 42 181 46 965 47 1051 1 10 -6 31 -10 48 -10 16 0 32 -4 35 -9
5 -8 48 -18 103 -24 12 -1 28 -8 35 -14 6 -7 27 -13 45 -13 21 0 36 -6 40 -16
3 -8 12 -13 20 -10 7 3 16 -1 19 -9 4 -8 16 -15 28 -15 13 0 33 -11 46 -25 24
-26 74 -55 94 -55 6 0 31 -23 55 -50 25 -28 52 -50 61 -50 17 0 80 -64 80 -81
0 -6 18 -26 39 -47 38 -36 39 -40 51 -137 10 -80 17 -103 33 -117 18 -14 19
-19 8 -32 -10 -12 -11 -25 -3 -58 6 -23 9 -45 6 -50 -3 -4 1 -20 9 -35 16 -32
29 -96 28 -135 -1 -16 2 -28 7 -28 5 0 7 -26 6 -57 -1 -33 3 -71 11 -88 8 -17
16 -82 19 -144 3 -63 11 -120 17 -127 7 -9 7 -30 -2 -74 -9 -48 -9 -77 0 -126
9 -49 9 -70 0 -86 -7 -12 -13 -78 -14 -152 -1 -72 -6 -146 -10 -164 -7 -29 -5
-34 14 -39 23 -6 29 -38 7 -46 -17 -7 -28 -87 -14 -104 5 -7 7 -17 3 -22 -3
-6 -8 -38 -10 -71 -9 -119 -16 -176 -25 -230 -6 -30 -8 -72 -4 -92 4 -29 2
-39 -10 -44 -21 -8 -27 -34 -17 -72 6 -19 6 -34 0 -37 -5 -4 -9 -17 -9 -31 0
-14 -5 -34 -11 -45 -8 -16 -5 -26 18 -52 15 -18 34 -55 42 -83 12 -43 18 -52
45 -60 19 -5 32 -17 35 -29 7 -44 22 -48 57 -14 31 30 38 32 94 31 49 -1 68 3
100 23 21 13 42 30 47 38 4 7 23 23 41 36 31 22 142 149 191 219 13 18 36 47
52 65 16 17 29 37 29 43 0 6 9 19 20 29 11 10 20 23 20 30 0 7 9 20 20 30 11
10 20 22 20 27 0 9 36 62 58 86 6 7 12 22 12 32 0 10 6 20 14 23 8 3 17 20 21
37 4 17 13 34 20 36 7 3 16 15 19 27 3 12 21 47 41 77 19 30 43 75 52 100 9
25 22 48 29 52 7 5 10 17 7 28 -3 11 1 27 8 36 27 32 79 138 79 160 0 8 3 14
8 14 4 0 13 23 20 52 6 28 23 63 36 77 21 22 24 34 22 82 -3 51 0 60 24 83 19
17 26 33 23 46 -3 12 1 22 11 26 9 4 16 18 16 33 0 29 36 140 50 155 5 5 4 19
-2 32 -10 20 -8 28 11 48 16 17 20 30 15 50 -5 20 -2 26 10 26 18 0 22 25 6
35 -17 11 -11 42 10 48 18 4 20 14 20 74 0 40 5 77 13 88 8 11 15 38 16 60 5
83 8 105 12 109 13 11 100 12 109 1 5 -7 38 -15 72 -19 34 -3 69 -12 77 -20 9
-7 34 -19 56 -26 22 -7 44 -16 49 -21 6 -5 23 -9 39 -9 21 0 30 -6 34 -20 5
-19 41 -41 93 -55 14 -4 54 -38 90 -75 36 -37 74 -69 85 -72 11 -2 21 -13 23
-24 2 -12 16 -33 33 -48 16 -14 29 -33 29 -41 0 -8 11 -17 25 -21 19 -5 25
-13 25 -33 0 -17 11 -38 30 -56 17 -16 30 -34 30 -41 0 -6 18 -31 40 -54 30
-32 40 -51 40 -75 0 -23 9 -42 29 -62 19 -19 30 -43 35 -74 4 -25 15 -62 26
-81 10 -20 24 -71 30 -115 6 -44 15 -95 20 -113 6 -22 6 -48 -2 -77 -8 -33 -8
-54 1 -82 15 -53 14 -78 -8 -141 -11 -30 -17 -67 -14 -83 3 -15 0 -34 -7 -42
-10 -13 -10 -19 4 -33 20 -22 21 -38 2 -45 -7 -3 -16 -22 -19 -42 -3 -21 -13
-45 -22 -55 -8 -9 -20 -46 -26 -81 -5 -35 -14 -72 -20 -81 -5 -10 -9 -26 -9
-36 0 -10 -14 -29 -31 -41 -25 -18 -29 -28 -24 -48 3 -15 2 -22 -4 -19 -14 9
-26 -14 -26 -54 0 -27 -5 -35 -20 -38 -28 -6 -55 -32 -55 -54 0 -10 -7 -21
-15 -24 -8 -4 -15 -13 -15 -20 0 -8 -6 -17 -14 -20 -8 -3 -20 -19 -26 -35 -7
-16 -17 -29 -22 -29 -5 0 -11 -8 -15 -17 -9 -26 -44 -63 -60 -63 -7 0 -13 -8
-14 -17 0 -10 -30 -43 -66 -73 -36 -30 -70 -66 -75 -80 -6 -18 -25 -33 -63
-50 -30 -13 -72 -41 -92 -62 -20 -21 -51 -42 -69 -48 -18 -6 -34 -20 -37 -31
-3 -10 -20 -26 -39 -35 -67 -32 -77 -39 -89 -61 -7 -13 -19 -21 -26 -19 -19 8
-65 -12 -58 -24 4 -6 3 -10 -2 -9 -4 1 -20 -3 -35 -9 -22 -9 -28 -18 -28 -42
0 -29 -2 -30 -45 -30 -47 0 -111 -26 -134 -54 -8 -9 -19 -16 -25 -16 -14 -1
-112 -49 -148 -74 -16 -10 -28 -24 -28 -31 0 -7 -17 -16 -37 -20 -21 -4 -46
-13 -55 -22 -13 -11 -21 -12 -38 -3 -25 13 -50 -1 -50 -30 0 -10 -12 -51 -26
-92 -14 -40 -28 -95 -30 -121 -2 -27 -10 -61 -18 -75 -26 -50 -46 -100 -46
-119 -1 -26 -23 -104 -37 -129 -7 -12 -17 -46 -22 -75 -6 -30 -14 -74 -20 -99
-5 -25 -7 -48 -5 -52 3 -4 -11 -22 -31 -40 -28 -26 -38 -45 -47 -93 -7 -33
-18 -64 -25 -68 -7 -4 -13 -27 -13 -50 -1 -32 -8 -50 -30 -77 -17 -19 -30 -44
-30 -56 0 -11 -9 -29 -20 -39 -11 -10 -20 -26 -20 -36 0 -10 -7 -25 -17 -34
-9 -9 -18 -39 -21 -68 -3 -36 -11 -56 -26 -68 -19 -16 -20 -20 -7 -40 12 -21
12 -24 -4 -34 -43 -26 -65 -48 -65 -67 0 -12 -18 -46 -41 -76 -23 -30 -45 -69
-51 -88 -5 -19 -13 -34 -18 -34 -6 0 -10 -5 -10 -11 0 -6 -8 -23 -19 -37 -10
-15 -23 -44 -29 -65 -6 -21 -23 -50 -37 -63 -20 -19 -25 -31 -21 -49 5 -18 1
-25 -14 -30 -11 -3 -23 -17 -26 -30 -3 -13 -15 -27 -25 -30 -10 -4 -22 -18
-26 -33 -3 -15 -19 -43 -35 -62 -15 -19 -28 -40 -28 -47 0 -7 -11 -25 -25 -40
-46 -53 -75 -91 -75 -100 0 -5 -11 -20 -25 -33 -14 -13 -37 -50 -52 -82 -18
-40 -36 -64 -59 -77 -25 -15 -34 -27 -34 -46 0 -15 -4 -24 -9 -21 -14 9 -32
-20 -25 -38 9 -22 -30 -63 -67 -71 -21 -5 -35 -18 -49 -46 -11 -21 -31 -46
-45 -55 -30 -19 -42 -53 -24 -65 7 -4 10 -11 6 -16 -5 -4 -12 -1 -16 6 -7 11
-16 7 -45 -15 -20 -16 -36 -33 -36 -38 0 -5 -25 -32 -55 -61 -30 -29 -55 -58
-55 -64 0 -6 -10 -16 -22 -22 -13 -7 -54 -45 -93 -86 -38 -40 -74 -73 -80 -73
-5 0 -43 -31 -82 -68 -40 -37 -89 -80 -108 -95 -19 -16 -35 -37 -35 -47 0 -12
-10 -21 -31 -25 -17 -4 -48 -21 -68 -39 -20 -17 -53 -41 -74 -51 -21 -11 -50
-32 -64 -48 -15 -15 -32 -27 -39 -27 -7 0 -26 -11 -42 -25 -16 -13 -40 -29
-53 -35 -42 -19 -70 -37 -98 -64 -15 -14 -30 -26 -34 -26 -3 0 -28 -14 -54
-30 -26 -17 -55 -30 -64 -30 -9 0 -24 -11 -33 -25 -9 -14 -23 -25 -32 -25 -25
0 -153 -59 -175 -81 -10 -10 -25 -19 -32 -19 -7 0 -35 -11 -63 -24 -27 -13
-64 -29 -82 -36 -18 -7 -43 -25 -56 -40 -22 -26 -25 -27 -40 -12 -15 15 -19
15 -49 0 -17 -9 -49 -22 -69 -29 -25 -9 -38 -19 -38 -31 0 -15 -3 -16 -25 -6
-20 9 -28 8 -43 -6 -11 -9 -38 -18 -61 -20 -23 -2 -48 -9 -54 -15 -6 -6 -19
-11 -29 -11 -10 0 -30 -7 -43 -16 -15 -10 -36 -14 -52 -11 -36 7 -53 -1 -53
-24 0 -10 -4 -19 -10 -19 -5 0 -10 4 -10 9 0 16 -30 21 -73 11 -23 -5 -78 -16
-122 -25 -44 -9 -93 -20 -110 -25 -16 -5 -64 -7 -105 -5 -57 3 -79 0 -92 -12
-12 -11 -21 -12 -35 -5 -11 7 -24 7 -35 1 -10 -5 -97 -7 -199 -5 -116 3 -190
1 -202 -6 -13 -7 -26 -7 -41 0 -38 19 -114 32 -145 26 -16 -4 -53 -1 -81 6
-29 7 -77 14 -109 15 -31 2 -74 8 -96 14 -22 6 -55 11 -73 11 -18 0 -60 9 -94
21 -36 12 -71 18 -88 14 -16 -3 -31 -2 -35 4 -3 6 -17 11 -31 11 -14 0 -46 9
-71 21 -25 11 -66 24 -92 28 -26 4 -62 15 -80 24 -19 9 -41 17 -50 17 -9 0
-27 9 -41 20 -14 11 -30 20 -36 20 -5 0 -29 9 -52 20 -22 11 -45 20 -50 20 -5
0 -23 7 -40 16 -18 8 -36 13 -41 10 -4 -3 -16 3 -26 14 -10 11 -27 20 -38 20
-10 0 -32 9 -47 20 -16 11 -42 23 -59 26 -16 4 -38 15 -47 25 -9 11 -22 19
-28 19 -6 0 -22 9 -36 20 -14 11 -37 20 -51 20 -17 0 -33 9 -43 25 -10 15 -26
25 -41 25 -13 0 -26 4 -30 9 -13 22 -98 71 -114 67 -22 -7 -38 4 -50 37 -6 16
-18 27 -30 27 -10 0 -32 15 -49 34 -16 19 -40 37 -53 41 -13 4 -40 21 -59 36
-19 16 -39 29 -43 29 -12 0 -80 54 -129 101 -21 20 -53 44 -71 52 -18 9 -39
26 -46 39 -7 13 -27 34 -45 48 -65 50 -140 116 -170 149 -17 18 -51 55 -76 80
-25 26 -79 85 -120 131 -64 72 -113 122 -142 148 -31 28 -148 175 -148 187 0
8 -9 20 -20 27 -12 7 -32 32 -46 56 -14 23 -31 42 -39 42 -8 0 -23 17 -34 38
-11 21 -27 44 -35 51 -9 8 -16 19 -16 26 0 8 -18 32 -40 55 -22 23 -40 48 -40
56 0 8 -20 36 -44 62 -24 26 -46 60 -50 77 -9 35 -52 108 -82 139 -11 11 -24
34 -28 49 -4 16 -17 38 -30 50 -13 12 -29 40 -37 62 -17 49 -64 111 -90 118
-14 4 -19 14 -19 40 0 20 -4 39 -10 42 -5 3 -10 16 -10 29 0 12 -4 26 -9 32
-11 12 -85 156 -106 209 -9 21 -19 42 -23 45 -5 3 -16 28 -27 55 -28 78 -94
213 -105 217 -5 2 -14 27 -20 57 -5 30 -14 59 -19 65 -4 6 -14 28 -20 49 -7
20 -17 37 -22 37 -5 0 -9 10 -9 23 0 20 -41 144 -56 168 -3 6 -13 38 -20 72
-8 34 -22 69 -30 78 -9 10 -18 37 -21 61 -3 24 -16 75 -30 113 -29 85 -63 211
-63 237 0 10 -4 26 -9 36 -15 30 -31 87 -31 112 0 13 -6 31 -14 39 -14 15 -27
79 -44 211 -4 30 -12 61 -16 69 -9 14 -12 33 -20 114 -2 20 -9 43 -14 50 -6 7
-14 51 -17 97 -10 121 -13 141 -36 275 -11 66 -23 161 -25 210 -2 50 -7 106
-11 125 -3 19 -7 49 -8 65 -1 17 -6 80 -10 140 -5 61 -9 205 -9 320 -1 116 -4
215 -8 221 -4 7 -3 36 2 65 5 30 12 155 14 279 5 255 12 389 26 440 5 19 9 78
9 130 0 53 4 107 9 120 5 14 12 66 16 115 4 50 12 109 18 130 12 47 29 172 27
200 -2 49 -3 48 47 235 9 36 19 92 21 125 3 33 8 65 13 70 4 6 13 35 21 65 7
30 16 60 21 66 4 6 7 29 6 50 0 22 4 48 9 59 6 11 21 54 33 95 13 41 37 120
55 175 18 55 37 118 43 140 32 113 47 152 63 170 9 11 23 48 29 83 7 34 17 65
21 68 5 3 9 14 9 25 0 10 4 19 9 19 4 0 16 26 26 58 10 31 24 64 31 73 8 8 14
23 14 31 0 9 7 21 15 28 9 7 14 19 11 25 -2 7 4 25 15 41 10 16 19 36 19 44 0
9 18 51 40 95 22 44 40 84 40 90 0 5 9 21 20 35 11 14 20 33 20 43 0 11 9 30
20 44 11 14 20 33 20 43 0 9 9 25 20 35 11 10 20 25 20 34 1 9 14 39 30 66 16
28 44 79 62 113 17 35 44 77 60 92 15 16 28 34 28 42 0 24 44 102 72 125 15
13 47 58 72 101 26 42 69 109 96 147 28 39 53 79 56 90 10 29 76 123 121 171
21 23 46 52 56 65 29 39 90 113 120 144 15 17 76 84 134 150 137 154 282 294
311 302 12 3 27 14 33 25 6 10 21 23 35 28 13 5 28 20 33 34 5 13 21 26 35 30
14 3 36 22 50 42 30 45 85 86 110 82 11 -2 30 -24 46 -56z m4620 -11562 c0 -5
-5 -10 -11 -10 -5 0 -7 5 -4 10 3 6 8 10 11 10 2 0 4 -4 4 -10z"/>
<path d="M9700 13580 c-12 -22 -40 -27 -40 -7 0 9 -29 12 -113 11 -61 -1 -126
-4 -144 -8 -17 -4 -59 -9 -94 -11 -34 -2 -67 -9 -72 -14 -6 -6 -26 -11 -44
-11 -18 0 -33 -4 -33 -10 0 -5 -13 -10 -29 -10 -17 0 -33 -4 -36 -10 -3 -5
-18 -10 -33 -10 -18 0 -37 -10 -54 -30 -19 -22 -35 -30 -58 -30 -37 0 -87 -25
-113 -57 -10 -12 -34 -25 -53 -29 -19 -3 -43 -17 -53 -30 -10 -13 -23 -24 -28
-24 -6 0 -18 -9 -28 -20 -10 -11 -23 -20 -28 -20 -25 0 -217 -204 -217 -231 0
-15 -75 -94 -120 -125 -19 -14 -53 -38 -75 -54 -22 -16 -49 -30 -60 -30 -11 0
-36 -14 -55 -30 -19 -17 -40 -30 -47 -30 -7 0 -20 -11 -29 -25 -9 -14 -27 -28
-39 -31 -12 -3 -38 -21 -56 -40 -18 -19 -39 -34 -46 -34 -18 0 -83 -59 -83
-76 0 -7 -8 -18 -19 -23 -26 -14 -61 -85 -61 -124 0 -26 8 -37 39 -59 22 -16
43 -28 49 -28 5 0 17 -9 27 -20 20 -22 36 -25 63 -11 9 6 34 13 55 16 21 3 41
13 44 21 5 14 87 74 102 74 5 0 15 10 24 23 20 29 38 13 44 -40 4 -39 33 -78
64 -88 47 -15 129 92 129 168 0 20 5 39 10 42 6 3 10 17 10 30 0 26 51 75 79
75 10 0 30 9 44 20 14 11 32 20 40 20 19 0 125 48 132 61 4 5 23 9 44 9 20 0
46 7 57 15 10 8 29 15 40 15 12 0 24 7 28 15 4 11 16 13 49 9 33 -5 51 -2 70
11 14 9 30 14 36 11 5 -3 21 -2 36 4 15 6 57 12 94 15 36 2 94 11 128 19 72
18 338 15 373 -4 16 -8 25 -8 35 0 7 6 31 10 52 8 30 -2 38 -7 38 -23 0 -14
-15 -27 -50 -43 -27 -13 -62 -35 -76 -49 -15 -13 -43 -30 -62 -37 -20 -6 -62
-34 -93 -61 -31 -28 -69 -57 -83 -66 -14 -9 -40 -32 -58 -50 -17 -19 -36 -38
-42 -44 -37 -33 -91 -102 -91 -116 0 -9 -11 -24 -25 -33 -13 -9 -34 -37 -45
-62 -12 -25 -27 -48 -35 -51 -8 -3 -15 -13 -15 -23 0 -11 -5 -22 -11 -26 -6
-3 -17 -21 -25 -38 -8 -17 -18 -38 -23 -46 -5 -8 -15 -35 -22 -60 -7 -25 -20
-65 -29 -90 -10 -25 -23 -69 -30 -99 -25 -109 -4 -460 30 -481 9 -5 11 -18 7
-39 -5 -23 -3 -33 8 -37 9 -4 15 -19 15 -39 0 -19 8 -39 20 -50 11 -10 20 -28
20 -40 0 -12 9 -30 20 -40 11 -10 20 -26 20 -37 0 -10 8 -26 18 -36 29 -31 78
-96 92 -122 18 -36 229 -240 247 -240 5 0 24 -10 43 -22 19 -12 37 -22 40 -23
22 -4 58 -20 70 -30 36 -31 182 -58 330 -60 85 -1 150 2 158 8 11 8 64 22 127
31 40 7 75 18 75 26 0 4 20 13 45 20 25 7 48 17 51 21 3 5 12 9 21 9 8 0 36
14 62 32 25 17 65 41 89 53 23 13 52 38 65 56 12 19 32 36 42 37 11 2 45 33
75 68 30 35 61 64 68 64 6 0 12 -2 12 -4 0 -13 -67 -127 -94 -161 -18 -22 -51
-66 -72 -99 -59 -88 -66 -98 -106 -141 -21 -22 -38 -43 -38 -47 0 -3 -24 -22
-54 -42 -30 -20 -56 -39 -58 -43 -10 -24 -233 -129 -321 -152 -42 -11 -84 -24
-94 -29 -10 -6 -54 -13 -98 -15 -44 -3 -91 -9 -105 -14 -14 -5 -99 -8 -190 -7
-149 1 -173 3 -245 27 -44 14 -106 32 -138 38 -32 7 -67 20 -78 30 -11 10 -35
21 -52 25 -36 8 -157 72 -157 84 0 9 -66 52 -92 60 -23 7 -218 173 -218 185 0
6 -13 18 -29 28 -16 9 -31 27 -34 40 -4 12 -20 30 -36 40 -16 9 -33 27 -37 40
-3 12 -26 45 -50 73 -24 28 -64 91 -90 140 -26 49 -53 96 -60 105 -8 8 -14 23
-14 33 0 10 -11 32 -24 49 -13 18 -27 51 -30 74 -3 24 -12 56 -21 72 -8 17
-15 41 -15 54 0 12 -4 27 -9 33 -4 5 -16 38 -25 74 -9 36 -20 72 -23 80 -3 8
-8 24 -10 35 -2 11 -7 31 -13 45 -14 38 -30 138 -30 194 -1 39 -7 60 -28 91
-28 39 -29 40 -83 37 -56 -3 -89 -26 -89 -61 0 -9 -5 -22 -11 -28 -15 -15 -18
-137 -5 -183 5 -19 8 -43 7 -52 -1 -10 3 -18 8 -18 6 0 11 -18 11 -39 0 -22 5
-43 10 -46 6 -3 10 -23 10 -44 0 -40 25 -124 45 -154 7 -10 11 -26 8 -36 -2
-10 7 -42 21 -71 14 -30 26 -60 26 -68 0 -9 16 -49 36 -91 20 -42 45 -96 57
-121 11 -25 24 -52 28 -60 5 -8 20 -37 35 -64 14 -27 37 -59 50 -73 13 -13 24
-32 24 -41 1 -9 21 -37 45 -62 25 -25 45 -48 45 -53 0 -9 87 -105 126 -138 10
-9 37 -38 58 -64 22 -25 53 -53 70 -62 17 -8 45 -29 63 -47 54 -53 89 -75 110
-70 16 4 23 -1 31 -24 8 -23 21 -34 59 -47 26 -9 62 -25 78 -36 17 -10 49 -28
71 -39 23 -11 47 -27 54 -35 7 -8 29 -15 50 -15 26 0 42 -6 51 -19 10 -13 31
-21 69 -25 30 -4 65 -13 77 -21 12 -8 35 -15 51 -15 15 0 55 -7 87 -16 33 -8
99 -15 147 -15 48 0 90 -3 92 -7 7 -11 298 14 331 28 11 5 40 11 65 13 105 11
346 106 393 155 12 13 46 37 75 54 33 19 72 54 103 93 27 34 62 68 79 75 18 8
30 20 30 31 0 11 5 19 10 19 6 0 10 6 10 13 0 7 18 34 40 61 22 26 40 54 40
62 0 8 5 14 10 14 6 0 10 7 10 15 0 8 14 30 30 48 17 19 30 41 30 49 0 8 9 23
20 33 11 10 22 27 26 39 3 11 15 31 26 43 39 42 111 222 168 415 4 14 7 52 5
83 -2 48 -7 62 -31 86 -27 27 -32 28 -62 17 -17 -7 -32 -16 -32 -20 0 -4 -7
-8 -15 -8 -17 0 -20 16 -6 25 11 6 23 107 24 193 1 86 -12 181 -33 238 -40
111 -183 308 -242 334 -14 6 -36 23 -49 36 -22 24 -98 65 -183 98 -21 9 -57
16 -80 16 -23 0 -47 5 -53 11 -19 19 -191 12 -253 -11 -30 -11 -68 -20 -85
-20 -18 0 -53 -15 -85 -35 -30 -19 -65 -35 -77 -35 -16 0 -51 -26 -104 -79
-76 -74 -95 -97 -118 -146 -5 -12 -16 -27 -25 -34 -9 -7 -16 -23 -16 -34 0
-11 -10 -48 -22 -81 -19 -52 -23 -81 -23 -191 0 -145 8 -183 63 -295 39 -80
133 -190 162 -190 9 0 25 -9 36 -21 32 -36 75 -52 177 -65 84 -11 104 -11 140
2 139 49 233 128 295 248 37 70 37 72 37 191 0 106 -3 125 -24 166 -31 61 -93
129 -118 129 -11 0 -28 9 -38 20 -11 13 -31 20 -52 20 -19 0 -48 8 -66 17 -43
23 -188 24 -214 2 -10 -9 -26 -19 -35 -22 -24 -9 -24 -67 1 -115 26 -51 73
-72 161 -72 61 0 75 -4 115 -31 26 -17 48 -37 49 -43 2 -6 8 -27 14 -45 7 -19
8 -37 3 -40 -5 -4 -11 -20 -15 -36 -4 -17 -20 -46 -36 -65 -17 -19 -30 -39
-30 -43 0 -16 -86 -47 -131 -47 -47 0 -149 35 -149 51 0 5 -15 26 -34 46 -39
44 -95 205 -79 226 6 6 11 30 11 52 1 22 11 59 22 82 11 23 20 48 20 56 0 7
14 26 30 42 17 16 30 35 30 42 0 7 5 13 10 13 6 0 10 9 10 20 0 13 7 20 19 20
10 0 51 18 91 40 40 22 78 40 84 40 7 0 17 5 22 10 6 6 49 12 97 14 47 2 91 7
96 11 6 3 21 -1 34 -10 13 -8 31 -13 40 -10 8 4 21 -2 28 -12 8 -11 30 -25 49
-33 45 -18 117 -77 123 -102 3 -11 15 -22 26 -25 11 -3 24 -18 30 -34 5 -16
14 -29 19 -29 5 0 13 -24 16 -52 4 -29 14 -60 22 -69 29 -32 18 -215 -16 -261
-11 -15 -20 -40 -20 -56 0 -30 -24 -87 -41 -98 -5 -3 -7 -14 -4 -25 4 -13 2
-19 -8 -19 -17 0 -70 -66 -63 -78 3 -5 -8 -19 -24 -31 -17 -12 -30 -28 -30
-36 0 -8 -12 -21 -28 -29 -15 -8 -36 -23 -46 -35 -11 -12 -24 -21 -31 -21 -7
0 -20 -9 -30 -20 -10 -11 -24 -20 -30 -20 -7 0 -19 -9 -26 -21 -8 -11 -41 -29
-74 -40 -62 -21 -117 -43 -147 -59 -10 -6 -29 -10 -42 -10 -14 0 -37 -5 -51
-12 -19 -9 -31 -8 -49 2 -15 7 -32 9 -43 5 -31 -14 -156 -5 -176 12 -14 13
-22 14 -43 4 -29 -13 -46 -7 -38 13 6 15 -52 50 -66 41 -11 -7 -96 51 -104 70
-3 8 -17 15 -31 15 -16 0 -28 7 -31 18 -3 9 -10 24 -15 32 -5 8 -16 30 -24 48
-9 17 -19 32 -23 32 -4 0 -21 25 -37 55 -17 30 -33 55 -37 55 -3 0 -14 21 -22
48 -9 26 -27 67 -41 91 -18 30 -27 65 -31 115 -3 39 -12 88 -20 109 -12 33
-12 41 1 66 8 17 12 42 9 62 -4 24 5 67 30 142 20 60 36 116 36 126 0 10 9 30
20 44 11 14 20 28 20 33 0 4 9 16 21 28 29 29 69 94 69 111 0 8 11 20 24 27
13 7 45 39 70 71 26 31 53 57 60 57 7 0 35 22 62 50 27 27 54 50 60 50 7 0 34
18 60 40 27 22 54 40 61 40 7 0 17 9 23 20 7 14 21 20 43 20 18 0 38 5 44 11
6 6 17 12 24 13 20 4 51 16 71 27 10 5 27 9 38 9 11 0 20 4 20 9 0 5 19 11 43
14 23 3 67 11 97 17 74 16 177 -1 247 -40 29 -17 58 -30 65 -30 7 0 35 -16 62
-35 27 -19 60 -35 73 -35 13 0 23 -6 23 -12 0 -7 15 -25 34 -40 31 -25 97 -97
241 -262 27 -32 61 -64 76 -71 28 -15 55 -66 46 -89 -3 -8 5 -31 19 -51 13
-20 24 -40 24 -45 0 -4 8 -22 17 -38 14 -25 26 -31 66 -36 37 -5 53 -3 66 9
10 8 25 15 34 15 10 0 25 4 35 9 66 34 384 47 512 20 30 -6 64 -13 75 -15 11
-2 71 -17 134 -34 62 -16 124 -30 137 -30 15 0 35 15 59 43 33 40 45 60 94
152 38 73 157 234 174 235 10 0 9 -34 -2 -45 -17 -18 -63 -139 -83 -215 -59
-231 -55 -572 7 -720 14 -33 25 -70 25 -83 0 -13 8 -31 18 -41 11 -9 25 -35
32 -59 8 -23 19 -49 26 -57 6 -8 19 -28 27 -45 23 -44 155 -196 209 -241 89
-73 111 -89 167 -121 160 -92 242 -133 269 -133 12 0 33 -6 45 -14 41 -26 357
-70 442 -62 124 12 238 38 352 79 105 39 313 176 313 208 0 5 6 9 14 9 15 0
110 105 143 159 33 54 93 178 93 194 0 7 11 41 24 75 37 93 61 332 45 437 -4
28 -14 95 -23 151 -16 107 -32 154 -92 277 -45 92 -169 227 -233 253 -22 9
-43 24 -46 34 -8 26 -188 108 -275 125 -19 4 -40 12 -47 17 -17 14 -309 12
-363 -2 -25 -6 -65 -15 -90 -19 -25 -4 -65 -20 -90 -34 -25 -15 -55 -27 -66
-27 -12 0 -33 -9 -47 -20 -14 -11 -32 -20 -41 -20 -9 0 -33 -15 -53 -34 -21
-18 -52 -41 -70 -49 -17 -9 -42 -30 -55 -47 -12 -17 -42 -50 -65 -74 -24 -24
-43 -49 -43 -56 0 -6 -12 -30 -28 -53 -97 -148 -117 -397 -47 -602 37 -106
129 -229 227 -301 37 -27 68 -52 68 -56 0 -13 212 -88 278 -100 303 -50 543
73 649 335 21 53 25 78 26 182 2 164 -10 204 -81 288 -20 24 -44 58 -53 74 -9
17 -36 39 -61 52 -25 12 -53 30 -63 41 -12 13 -31 20 -53 20 -20 0 -44 8 -55
17 -27 25 -182 27 -246 3 -140 -52 -180 -87 -207 -181 -29 -100 -13 -176 41
-201 20 -9 34 -7 67 6 70 29 72 31 90 67 29 57 65 79 130 79 31 0 67 -4 80 -9
37 -14 118 -86 144 -127 42 -69 27 -239 -27 -308 -43 -55 -174 -105 -264 -101
-106 5 -237 45 -285 89 -21 19 -47 39 -58 45 -34 18 -101 135 -128 222 -30 97
-30 93 -14 182 10 59 43 143 84 214 40 70 210 182 351 231 47 17 194 32 265
28 87 -5 193 -30 236 -55 19 -12 46 -21 59 -21 13 0 35 -10 49 -22 13 -13 52
-48 86 -78 45 -41 71 -75 102 -135 22 -44 44 -84 48 -90 40 -55 56 -427 21
-510 -5 -11 -14 -40 -21 -65 -7 -25 -26 -69 -42 -97 -15 -29 -28 -62 -28 -73
0 -11 -6 -23 -14 -26 -7 -3 -28 -28 -46 -56 -20 -31 -44 -54 -62 -60 -20 -7
-35 -23 -44 -44 -8 -19 -21 -34 -30 -34 -9 0 -28 -6 -42 -13 -123 -62 -184
-84 -275 -103 -38 -8 -72 -16 -76 -18 -13 -9 -281 12 -294 22 -7 5 -28 13 -47
17 -44 9 -169 51 -177 59 -4 3 -14 6 -23 6 -10 0 -23 7 -30 15 -7 8 -21 15
-30 15 -10 0 -27 11 -37 25 -10 14 -45 41 -78 59 -41 22 -74 52 -106 92 -25
32 -59 68 -77 79 -21 13 -31 28 -32 45 0 14 -14 43 -30 64 -17 22 -30 45 -30
51 0 6 -14 32 -31 58 -24 37 -31 60 -36 119 -3 49 -11 82 -24 101 -17 24 -18
32 -8 70 6 23 11 85 11 137 0 57 5 107 13 125 19 45 35 99 35 121 0 28 42 125
68 158 12 16 22 37 22 47 0 11 9 28 20 39 10 10 31 37 45 60 14 22 43 52 65
66 22 15 40 33 40 40 0 7 12 21 26 31 14 10 42 32 62 49 51 42 160 114 173
114 6 0 22 9 36 20 14 11 44 25 67 31 22 6 48 17 56 23 20 17 112 46 144 46
14 0 27 4 30 9 3 4 33 11 66 14 34 4 69 11 80 17 10 6 90 10 182 9 340 -1 367
3 459 66 35 25 41 26 74 15 20 -7 53 -14 73 -16 84 -8 243 -45 312 -72 57 -22
101 -33 110 -27 5 3 29 -5 52 -19 24 -13 64 -31 89 -40 26 -8 63 -26 83 -40
22 -14 44 -22 56 -19 12 3 28 -1 38 -9 9 -8 32 -20 50 -26 18 -6 45 -20 61
-31 49 -35 158 -88 194 -95 45 -8 107 16 135 53 29 39 38 111 19 147 -22 41
-72 86 -156 139 -8 6 -47 33 -86 61 -80 57 -261 154 -289 154 -3 0 -22 11 -42
25 -20 14 -47 25 -59 25 -12 0 -50 11 -84 25 -34 14 -83 28 -109 32 -26 3 -57
13 -69 20 -32 21 -121 34 -258 39 -66 2 -149 9 -185 16 -46 9 -152 12 -365 10
-248 -2 -320 -6 -413 -22 -213 -38 -620 -164 -634 -196 -9 -20 -61 -54 -81
-54 -7 0 -28 -11 -47 -24 -19 -13 -46 -27 -60 -31 -14 -4 -41 -22 -60 -40 -19
-18 -53 -42 -75 -53 -39 -19 -99 -69 -196 -164 -27 -26 -49 -49 -49 -52 0 -3
-24 -31 -52 -62 -29 -31 -57 -63 -62 -72 -5 -10 -28 -37 -50 -62 -23 -25 -56
-70 -74 -101 -47 -82 -52 -85 -120 -70 -146 33 -473 48 -505 23 -7 -5 -41 -8
-76 -8 l-64 1 -15 43 c-7 23 -18 42 -23 42 -5 0 -9 6 -9 14 0 7 -7 19 -15 26
-9 7 -25 32 -36 54 -31 64 -68 109 -144 175 -38 34 -77 69 -85 78 -15 16 -58
57 -108 103 -37 34 -105 80 -118 80 -6 0 -17 7 -24 15 -7 8 -20 15 -30 15 -9
0 -25 9 -35 20 -10 11 -28 20 -41 20 -13 0 -28 9 -34 20 -6 11 -19 20 -29 20
-10 0 -26 9 -36 20 -12 14 -31 20 -58 20 -27 0 -48 7 -62 20 -12 12 -44 25
-71 29 -27 5 -68 18 -91 30 -23 11 -51 21 -63 21 -11 0 -46 9 -78 19 -31 11
-84 22 -117 26 -33 4 -114 16 -180 27 -220 36 -299 43 -485 43 -156 -1 -198
-4 -270 -22 -47 -12 -134 -34 -195 -48 -60 -14 -134 -33 -163 -42 -29 -8 -56
-12 -59 -9 -8 8 27 46 42 46 7 0 27 13 44 29 17 16 42 32 57 35 14 4 35 16 47
27 12 11 45 31 74 44 28 13 54 29 58 34 3 6 19 11 36 11 16 0 37 4 47 9 87 42
143 57 205 52 21 -2 44 3 53 9 22 19 575 20 598 1 10 -8 31 -12 58 -9 24 3 61
-2 83 -9 22 -8 66 -16 97 -17 40 -2 64 -9 78 -21 18 -16 24 -17 42 -6 17 10
23 10 38 -4 10 -9 23 -14 28 -11 5 3 24 -1 41 -10 19 -9 42 -13 57 -10 13 4
36 0 52 -8 34 -17 156 -48 199 -50 17 -1 35 -5 39 -9 4 -4 20 -7 35 -7 15 0
31 -5 34 -10 3 -6 17 -7 30 -4 12 3 36 -1 51 -9 49 -24 100 -27 154 -8 63 22
81 38 60 52 -13 8 -13 11 2 19 25 15 10 48 -31 67 -20 9 -38 20 -41 24 -9 13
-94 39 -130 39 -20 0 -46 7 -58 16 -12 8 -31 13 -41 9 -11 -3 -22 -1 -26 5 -3
5 -21 10 -38 10 -18 0 -41 7 -51 15 -12 9 -23 11 -31 5 -7 -6 -25 -4 -50 5
-22 8 -48 14 -58 15 -10 0 -32 7 -49 16 -25 13 -35 13 -59 3 -27 -10 -32 -9
-54 11 -19 18 -32 22 -60 17 -19 -3 -35 -2 -35 4 0 5 -11 9 -25 9 -14 0 -28 6
-30 13 -4 8 -33 13 -88 15 -70 2 -85 6 -100 24 l-18 21 -20 -22 c-21 -23 -39
-20 -39 6 0 11 -7 14 -25 11 -13 -3 -50 -1 -82 4 -39 6 -73 5 -102 -2 -36 -9
-46 -8 -61 5 -22 20 -37 19 -50 -5z m1160 -2590 c0 -5 -4 -10 -10 -10 -5 0
-10 5 -10 10 0 6 5 10 10 10 6 0 10 -4 10 -10z"/>
<path d="M15304 12373 c-3 -10 -14 -36 -25 -58 -10 -22 -19 -48 -19 -57 0 -9
-4 -19 -9 -22 -5 -3 -10 -88 -11 -189 -1 -193 -3 -230 -19 -372 -5 -49 -7
-100 -4 -112 2 -11 -3 -32 -12 -46 -9 -15 -16 -47 -17 -79 0 -50 -24 -164 -46
-218 -18 -45 -42 -132 -42 -153 0 -11 -10 -31 -22 -44 -11 -12 -29 -46 -39
-74 -10 -28 -31 -68 -46 -88 -15 -20 -35 -48 -43 -62 -34 -59 -82 -129 -89
-129 -5 0 -48 -40 -97 -88 -49 -49 -109 -98 -134 -111 -24 -13 -70 -42 -101
-66 -36 -27 -72 -45 -100 -50 -24 -4 -60 -16 -82 -28 -61 -32 -291 -83 -417
-93 -155 -12 -440 -3 -465 16 -5 4 -44 17 -85 29 -89 27 -189 68 -211 87 -8 8
-25 14 -37 14 -11 0 -28 8 -38 17 -9 10 -29 24 -43 32 -14 7 -36 19 -47 25
-24 13 -81 58 -125 99 -17 15 -34 27 -38 27 -4 0 -29 23 -56 50 -27 28 -53 50
-57 50 -5 0 -20 7 -34 16 -20 14 -22 19 -12 32 11 12 6 20 -25 47 -20 18 -37
38 -37 45 0 12 -32 55 -79 107 -13 15 -28 45 -33 66 -5 22 -18 52 -28 68 -11
15 -20 33 -20 41 0 8 -6 20 -12 26 -11 11 -20 38 -45 142 -3 14 -15 37 -26 51
-14 20 -17 31 -9 46 13 24 -25 145 -56 175 -17 18 -27 20 -76 14 -45 -6 -59
-13 -76 -35 -18 -26 -19 -36 -11 -128 5 -56 14 -110 20 -120 6 -11 8 -23 6
-25 -3 -3 2 -21 10 -41 8 -20 15 -49 15 -64 1 -15 9 -46 20 -68 11 -22 19 -48
20 -58 0 -23 104 -242 119 -251 6 -4 11 -14 11 -22 0 -8 26 -48 58 -90 31 -42
67 -90 79 -107 12 -16 47 -55 78 -86 30 -31 60 -61 66 -67 86 -89 118 -116
180 -157 41 -26 103 -68 138 -92 40 -28 76 -45 93 -45 16 0 31 -7 34 -15 6
-16 103 -65 128 -65 8 0 17 -4 21 -9 3 -5 30 -15 60 -22 30 -7 55 -15 55 -19
0 -8 52 -19 125 -27 27 -3 59 -10 70 -16 11 -5 47 -11 80 -12 33 0 65 -3 70
-6 9 -5 110 -4 110 1 0 1 56 3 125 4 69 1 130 4 135 7 6 4 24 7 40 7 17 1 55
6 85 12 30 6 71 14 90 17 19 3 41 10 49 17 8 6 24 9 36 8 12 -2 39 6 59 17 20
12 49 21 64 21 15 0 35 9 45 20 9 11 31 23 47 27 17 3 30 9 30 14 0 5 8 9 18
9 10 0 27 7 38 15 10 8 29 15 41 15 12 0 45 22 73 48 32 30 67 52 94 60 31 8
48 20 66 48 14 21 38 45 55 54 16 9 32 27 35 41 3 13 18 30 33 37 15 7 27 19
27 26 0 8 12 21 26 31 14 9 30 29 36 45 6 18 18 30 31 32 15 2 25 14 32 38 12
43 34 74 58 83 9 3 17 15 17 26 0 11 9 25 20 31 11 6 18 15 15 19 -2 5 2 14
10 21 8 7 12 16 10 21 -3 4 -1 16 4 26 30 55 61 135 61 157 0 14 5 28 10 31 6
3 10 15 10 26 0 11 10 33 21 49 15 20 21 42 21 74 -1 28 4 48 12 53 14 9 22
44 35 163 5 41 14 88 20 104 9 23 9 40 0 77 -11 41 -10 49 4 64 19 19 22 45 6
45 -8 0 -9 13 -4 43 11 65 12 120 2 140 -5 12 -4 23 3 32 8 9 9 39 4 97 -5 46
-8 108 -9 138 0 30 -6 65 -12 77 -7 12 -13 28 -13 35 0 12 -46 64 -112 126
-13 12 -30 22 -38 22 -8 0 -24 7 -34 15 -26 20 -35 19 -42 -2z"/>
<path d="M11655 11198 c-21 -24 -42 -55 -47 -70 -6 -16 -14 -28 -18 -28 -5 0
-24 -21 -42 -47 -17 -27 -38 -54 -45 -61 -8 -8 -20 -26 -27 -40 -8 -15 -23
-36 -35 -46 -12 -11 -21 -24 -21 -31 0 -7 -9 -20 -20 -30 -11 -10 -23 -33 -26
-52 -5 -25 -16 -41 -45 -59 -24 -15 -41 -35 -45 -52 -4 -15 -15 -36 -25 -47
-18 -21 -53 -81 -88 -152 -12 -23 -30 -47 -41 -53 -11 -6 -20 -17 -20 -24 0
-17 -28 -74 -41 -81 -5 -4 -9 -21 -9 -40 0 -21 -6 -37 -16 -43 -10 -6 -18 -28
-21 -58 -3 -27 -12 -57 -20 -66 -20 -22 -32 -82 -22 -101 7 -11 4 -20 -9 -29
-10 -7 -19 -22 -19 -33 -1 -11 -4 -57 -7 -103 -4 -60 -1 -100 11 -145 8 -34
15 -77 15 -95 -1 -38 28 -111 51 -130 9 -8 19 -27 22 -43 4 -16 12 -32 20 -36
7 -5 20 -24 28 -44 10 -24 26 -41 46 -50 22 -10 38 -28 51 -56 14 -31 25 -43
40 -43 12 0 33 -9 47 -20 14 -11 31 -20 37 -20 6 0 17 -9 24 -20 7 -12 17 -18
22 -15 6 3 31 -8 57 -26 32 -22 60 -33 88 -34 23 -1 53 -10 67 -19 15 -10 32
-16 40 -15 7 2 23 -3 36 -10 21 -11 24 -10 29 8 3 12 13 21 23 21 11 0 20 9
23 23 l4 22 8 -23 c11 -34 29 -21 35 25 7 47 34 93 55 93 26 0 54 58 50 104
-2 22 2 52 9 65 13 23 11 26 -21 48 -18 13 -40 23 -47 23 -8 0 -16 9 -19 19
-4 17 -13 20 -55 19 -28 -1 -57 3 -64 9 -14 11 -55 21 -125 30 -23 2 -50 13
-62 24 -11 10 -29 19 -40 19 -11 0 -40 23 -68 54 -72 81 -123 192 -123 267 0
70 44 291 66 331 8 15 22 50 30 78 8 27 19 50 24 50 6 0 10 7 10 16 0 20 93
207 120 242 12 14 24 39 27 54 3 15 11 29 18 32 16 6 65 93 65 115 0 9 9 22
20 29 11 7 20 18 20 26 0 7 9 21 20 31 11 10 20 25 20 33 0 9 6 23 14 31 24
27 95 172 102 208 9 49 -24 83 -82 83 -37 0 -47 -5 -79 -42z"/>
<path d="M12937 7794 c-3 -4 -33 -9 -64 -11 -32 -2 -65 -6 -73 -9 -8 -4 -44
-8 -80 -10 -36 -3 -76 -9 -90 -14 -14 -4 -61 -12 -105 -15 -118 -11 -128 -12
-275 -35 -74 -12 -164 -24 -200 -26 -35 -3 -69 -9 -75 -13 -5 -5 -53 -11 -105
-15 -52 -3 -99 -11 -104 -16 -6 -6 -35 -10 -66 -10 -30 0 -98 -7 -150 -15 -52
-8 -113 -17 -135 -20 -175 -25 -188 -28 -193 -47 -2 -10 -13 -18 -23 -18 -10
0 -26 -11 -35 -25 -21 -32 -31 -110 -15 -119 6 -4 11 -15 11 -25 0 -31 24 -68
52 -80 31 -14 177 -7 209 10 11 5 38 7 62 4 24 -4 54 -1 72 5 17 7 67 14 113
17 46 2 95 9 110 14 15 6 61 13 102 15 41 3 77 8 80 12 3 4 36 8 73 9 38 1 76
5 85 9 10 4 40 9 67 10 87 3 163 12 176 19 10 7 107 21 204 30 17 1 74 10 128
19 53 10 110 15 126 11 19 -4 32 -1 40 9 9 11 25 13 61 9 47 -5 51 -4 81 31
18 20 40 36 50 36 22 0 45 36 53 87 6 33 2 52 -19 97 -14 30 -34 57 -43 60
-39 11 -98 17 -105 10z"/>
<path d="M5460 11150 c0 -11 5 -20 10 -20 6 0 10 9 10 20 0 11 -4 20 -10 20
-5 0 -10 -9 -10 -20z"/>
<path d="M4692 8508 c-15 -5 -33 -6 -40 -3 -7 2 -28 -4 -47 -15 -20 -11 -48
-20 -64 -20 -16 0 -34 -7 -41 -15 -7 -8 -27 -15 -45 -15 -24 0 -34 -5 -38 -20
-3 -11 -21 -27 -40 -35 -19 -8 -37 -21 -40 -30 -4 -8 -14 -15 -23 -15 -26 0
-74 -40 -74 -61 0 -10 -4 -19 -9 -19 -8 0 -91 -106 -91 -116 0 -3 -9 -17 -19
-30 -11 -14 -22 -42 -26 -64 -4 -21 -13 -44 -20 -50 -8 -7 -17 -33 -20 -58 -7
-50 -14 -79 -39 -157 -14 -43 -32 -299 -27 -370 1 -11 3 -42 5 -70 6 -80 36
-249 47 -260 5 -5 9 -23 9 -40 0 -17 4 -35 9 -40 8 -9 22 -56 51 -173 4 -18
13 -38 18 -45 5 -7 16 -31 23 -55 7 -23 18 -47 26 -53 7 -6 13 -18 13 -27 0
-18 67 -139 92 -166 10 -11 18 -25 18 -32 0 -6 7 -17 15 -24 9 -7 23 -29 32
-49 10 -20 28 -44 40 -54 13 -10 23 -25 23 -32 0 -8 14 -21 30 -30 17 -9 30
-20 30 -26 0 -16 63 -89 78 -89 7 0 30 -18 51 -40 21 -23 47 -40 59 -40 15 0
22 -6 22 -18 0 -22 30 -52 52 -52 8 0 23 -9 33 -20 10 -11 25 -20 33 -20 8 0
42 -17 76 -38 55 -34 116 -63 156 -75 8 -2 23 0 33 5 14 7 24 5 40 -11 30 -27
92 -39 216 -41 58 0 109 -4 114 -7 6 -3 16 2 23 12 11 14 16 16 28 6 17 -15
78 -6 118 17 21 12 30 13 41 4 11 -9 18 -8 32 8 10 11 28 20 40 20 13 0 28 7
35 15 7 8 19 15 26 15 21 0 81 35 111 64 14 14 33 26 43 26 9 0 30 15 46 33
16 17 45 46 65 63 19 16 38 37 41 45 3 8 26 42 52 75 25 34 46 65 46 70 0 4 8
16 17 26 10 11 18 37 18 63 1 27 9 53 19 64 11 12 15 27 12 39 -4 10 1 36 11
58 22 51 36 168 32 282 0 15 3 42 7 60 3 19 2 43 -4 55 -6 12 -13 38 -16 57
-13 87 -19 111 -27 116 -10 6 -12 77 -3 109 5 19 51 49 149 98 127 63 202 97
213 97 7 0 20 4 30 9 24 13 55 24 71 25 8 1 15 10 16 22 1 11 11 30 23 42 23
23 28 47 13 57 -12 7 -41 64 -41 80 0 20 -25 65 -36 65 -6 0 -18 10 -26 21
-13 21 -16 21 -69 8 -29 -7 -62 -21 -71 -30 -9 -9 -34 -23 -55 -29 -21 -7 -45
-18 -53 -25 -8 -8 -27 -16 -42 -20 -15 -4 -29 -13 -32 -21 -3 -8 -15 -14 -26
-14 -34 0 -90 -28 -90 -44 0 -12 -12 -16 -50 -16 -55 0 -104 -20 -114 -45 -3
-9 -10 -14 -15 -10 -5 3 -13 0 -16 -5 -4 -6 -17 -10 -28 -9 -36 2 -39 0 -23
-23 9 -12 16 -29 16 -38 0 -16 -43 -40 -71 -40 -19 0 -33 -26 -18 -36 13 -8 1
-46 -19 -61 -14 -11 -13 -17 3 -53 10 -22 24 -40 31 -40 19 0 28 -20 15 -33
-13 -13 -15 -44 -2 -49 5 -1 12 -21 15 -43 3 -22 11 -65 17 -95 13 -68 20
-308 9 -335 -4 -11 -14 -40 -21 -65 -7 -25 -16 -49 -19 -55 -4 -5 -10 -21 -13
-35 -4 -14 -25 -50 -47 -80 -41 -54 -133 -150 -145 -150 -4 0 -25 -13 -48 -29
-23 -15 -57 -32 -74 -35 -18 -4 -35 -12 -38 -17 -4 -5 -23 -9 -43 -9 -21 0
-47 -7 -59 -15 -19 -14 -35 -13 -155 5 -73 11 -141 25 -150 30 -10 6 -29 10
-42 10 -14 0 -28 5 -31 10 -3 6 -17 10 -29 10 -13 0 -29 6 -35 13 -6 8 -30 22
-53 32 -72 32 -122 67 -256 183 -38 33 -131 141 -157 183 -5 9 -23 36 -40 60
-16 24 -41 69 -56 101 -15 31 -34 60 -42 65 -8 4 -22 40 -32 78 -9 39 -32 109
-51 156 -32 80 -38 100 -51 189 -3 19 -10 41 -17 49 -19 24 -24 327 -6 411 31
148 51 214 89 287 93 178 256 273 473 273 94 0 211 -18 263 -41 11 -4 45 -16
75 -26 61 -21 174 -84 244 -138 26 -19 48 -35 51 -35 11 0 81 -76 94 -102 8
-15 24 -31 35 -34 12 -4 29 -14 39 -22 17 -15 21 -15 49 1 16 9 34 15 38 12
10 -6 100 21 140 42 14 7 30 13 37 13 7 0 33 11 59 25 26 14 59 25 74 25 15 0
33 7 40 15 7 8 30 18 51 21 25 4 44 15 54 31 13 19 22 23 40 19 14 -4 32 1 48
14 18 14 33 18 56 14 34 -7 81 16 81 40 0 8 16 20 35 26 29 9 35 17 35 39 0
15 6 33 13 40 10 10 6 17 -18 37 -26 21 -28 26 -17 44 30 49 4 69 -103 77 -67
5 -74 4 -84 -16 -9 -16 -18 -20 -35 -15 -22 5 -56 -16 -56 -36 0 -4 -15 -10
-32 -13 -18 -3 -51 -10 -73 -17 -22 -7 -54 -14 -71 -17 -17 -3 -48 -20 -69
-39 -28 -25 -44 -32 -61 -28 -15 4 -36 -2 -58 -16 -19 -11 -63 -28 -97 -37
l-62 -16 -19 27 c-11 14 -25 26 -32 26 -6 0 -27 15 -46 33 -59 56 -123 104
-170 127 -25 12 -67 33 -93 47 -27 13 -63 26 -80 29 -18 3 -47 13 -66 21 -19
9 -47 17 -62 18 -16 1 -35 7 -43 14 -24 20 -276 34 -334 19z"/>
</g>
</svg>
